<svg width="72" height="61" viewBox="0 0 72 61" fill="none" xmlns="http://www.w3.org/2000/svg">
<path d="M55.6172 26.1914C56.5781 27.8789 57.293 29.6367 57.7617 31.4648C58.2305 33.293 58.4766 35.1797 58.5 37.125V40.7461L36 52.0312L13.5 40.7461C13.5 39.3398 13.5117 38.0273 13.5352 36.8086C13.5586 35.5898 13.6641 34.4062 13.8516 33.2578C14.0391 32.1094 14.3203 30.9609 14.6953 29.8125C15.0703 28.6641 15.6328 27.457 16.3828 26.1914L9 22.5V43.1367C9.67969 43.3711 10.2891 43.6992 10.8281 44.1211C11.3672 44.543 11.8477 45.0352 12.2695 45.5977C12.6914 46.1602 12.9961 46.7695 13.1836 47.4258C13.3711 48.082 13.4766 48.7734 13.5 49.5V60.75H0V49.5C0 48.7969 0.105469 48.1172 0.316406 47.4609C0.527344 46.8047 0.832031 46.1836 1.23047 45.5977C1.62891 45.0117 2.09766 44.5195 2.63672 44.1211C3.17578 43.7227 3.79688 43.3945 4.5 43.1367V20.25L0 18L36 0L72 18L55.6172 26.1914ZM9 49.5C9 48.8906 8.77734 48.3633 8.33203 47.918C7.88672 47.4727 7.35938 47.25 6.75 47.25C6.14062 47.25 5.61328 47.4727 5.16797 47.918C4.72266 48.3633 4.5 48.8906 4.5 49.5V56.25H9V49.5ZM10.0547 18L36 30.9727L61.9453 18L36 5.02734L10.0547 18ZM54 37.9688C54 36.1641 53.8242 34.4883 53.4727 32.9414C53.1211 31.3945 52.5 29.8125 51.6094 28.1953L36 36L20.3906 28.1953C19.6172 29.5547 19.0312 30.9844 18.6328 32.4844C18.2344 33.9844 18.0234 35.5312 18 37.125V37.9688L36 46.9688L54 37.9688Z" fill="#1F3C88"/>
</svg>
