<svg width="58" height="46" viewBox="0 0 58 46" fill="none" xmlns="http://www.w3.org/2000/svg">
<path d="M23.3333 45.6666C21.775 45.6666 20.4414 45.1122 19.3326 44.0034C18.2239 42.8947 17.6685 41.5602 17.6666 39.9999C17.6647 38.4397 18.2201 37.1062 19.3326 35.9993C20.4452 34.8924 21.7787 34.337 23.3333 34.3333H51.6666C53.225 34.3333 54.5595 34.8886 55.6701 35.9993C56.7808 37.1099 57.3352 38.4435 57.3333 39.9999C57.3314 41.5564 56.777 42.8909 55.6701 44.0034C54.5632 45.116 53.2287 45.6704 51.6666 45.6666H23.3333ZM23.3333 28.6666C21.775 28.6666 20.4414 28.1122 19.3326 27.0034C18.2239 25.8947 17.6685 24.5602 17.6666 22.9999C17.6647 21.4397 18.2201 20.1062 19.3326 18.9993C20.4452 17.8924 21.7787 17.337 23.3333 17.3333H51.6666C53.225 17.3333 54.5595 17.8886 55.6701 18.9993C56.7808 20.1099 57.3352 21.4435 57.3333 22.9999C57.3314 24.5564 56.777 25.8909 55.6701 27.0034C54.5632 28.116 53.2287 28.6704 51.6666 28.6666H23.3333ZM23.3333 11.6666C21.775 11.6666 20.4414 11.1122 19.3326 10.0034C18.2239 8.89466 17.6685 7.56016 17.6666 5.99994C17.6647 4.43972 18.2201 3.10616 19.3326 1.99927C20.4452 0.892382 21.7787 0.337049 23.3333 0.333271H51.6666C53.225 0.333271 54.5595 0.888604 55.6701 1.99927C56.7808 3.10994 57.3352 4.44349 57.3333 5.99994C57.3314 7.55638 56.777 8.89088 55.6701 10.0034C54.5632 11.116 53.2287 11.6704 51.6666 11.6666H23.3333ZM6.3333 11.6666C4.77496 11.6666 3.44141 11.1122 2.33263 10.0034C1.22385 8.89466 0.66852 7.56016 0.666631 5.99994C0.664742 4.43972 1.22008 3.10616 2.33263 1.99927C3.44519 0.892382 4.77874 0.337049 6.3333 0.333271C7.88785 0.329493 9.22235 0.884826 10.3368 1.99927C11.4512 3.11371 12.0056 4.44727 12 5.99994C11.9943 7.5526 11.4399 8.8871 10.3368 10.0034C9.23369 11.1198 7.89919 11.6742 6.3333 11.6666ZM6.3333 28.6666C4.77496 28.6666 3.44141 28.1122 2.33263 27.0034C1.22385 25.8947 0.66852 24.5602 0.666631 22.9999C0.664742 21.4397 1.22008 20.1062 2.33263 18.9993C3.44519 17.8924 4.77874 17.337 6.3333 17.3333C7.88785 17.3295 9.22235 17.8848 10.3368 18.9993C11.4512 20.1137 12.0056 21.4473 12 22.9999C11.9943 24.5526 11.4399 25.8871 10.3368 27.0034C9.23369 28.1198 7.89919 28.6742 6.3333 28.6666ZM6.3333 45.6666C4.77496 45.6666 3.44141 45.1122 2.33263 44.0034C1.22385 42.8947 0.66852 41.5602 0.666631 39.9999C0.664742 38.4397 1.22008 37.1062 2.33263 35.9993C3.44519 34.8924 4.77874 34.337 6.3333 34.3333C7.88785 34.3295 9.22235 34.8848 10.3368 35.9993C11.4512 37.1137 12.0056 38.4473 12 39.9999C11.9943 41.5526 11.4399 42.8871 10.3368 44.0034C9.23369 45.1198 7.89919 45.6742 6.3333 45.6666Z" fill="#1F3C88"/>
</svg>
