<svg width="66" height="66" viewBox="0 0 66 66" fill="none" xmlns="http://www.w3.org/2000/svg">
<path d="M15 24H10.5C8.51088 24 6.60322 23.2098 5.1967 21.8033C3.79018 20.3968 3 18.4891 3 16.5C3 14.5109 3.79018 12.6032 5.1967 11.1967C6.60322 9.79018 8.51088 9 10.5 9H15M15 24V3H51V24M15 24C15 28.7739 16.8964 33.3523 20.2721 36.7279C23.6477 40.1036 28.2261 42 33 42C37.7739 42 42.3523 40.1036 45.7279 36.7279C49.1036 33.3523 51 28.7739 51 24M51 24H55.5C57.4891 24 59.3968 23.2098 60.8033 21.8033C62.2098 20.3968 63 18.4891 63 16.5C63 14.5109 62.2098 12.6032 60.8033 11.1967C59.3968 9.79018 57.4891 9 55.5 9H51M9 63H57M27 40.98V48C27 49.65 25.59 50.94 24.09 51.63C20.55 53.25 18 57.72 18 63M39 40.98V48C39 49.65 40.41 50.94 41.91 51.63C45.45 53.25 48 57.72 48 63" stroke="#1F3C88" stroke-width="5" stroke-linecap="round" stroke-linejoin="round"/>
</svg>
