<svg width="68" height="68" viewBox="0 0 68 68" fill="none" xmlns="http://www.w3.org/2000/svg">
<path fill-rule="evenodd" clip-rule="evenodd" d="M46.3636 24.7273C46.3636 28.0063 45.061 31.1511 42.7424 33.4697C40.4238 35.7883 37.279 37.0909 34 37.0909C30.721 37.0909 27.5762 35.7883 25.2576 33.4697C22.939 31.1511 21.6364 28.0063 21.6364 24.7273C21.6364 21.4482 22.939 18.3035 25.2576 15.9849C27.5762 13.6662 30.721 12.3636 34 12.3636C37.279 12.3636 40.4238 13.6662 42.7424 15.9849C45.061 18.3035 46.3636 21.4482 46.3636 24.7273ZM40.1818 24.7273C40.1818 26.3668 39.5305 27.9392 38.3712 29.0985C37.2119 30.2578 35.6395 30.9091 34 30.9091C32.3605 30.9091 30.7881 30.2578 29.6288 29.0985C28.4695 27.9392 27.8182 26.3668 27.8182 24.7273C27.8182 23.0878 28.4695 21.5154 29.6288 20.3561C30.7881 19.1968 32.3605 18.5455 34 18.5455C35.6395 18.5455 37.2119 19.1968 38.3712 20.3561C39.5305 21.5154 40.1818 23.0878 40.1818 24.7273Z" fill="#1F3C88"/>
<path fill-rule="evenodd" clip-rule="evenodd" d="M34 0C15.2227 0 0 15.2227 0 34C0 52.7773 15.2227 68 34 68C52.7773 68 68 52.7773 68 34C68 15.2227 52.7773 0 34 0ZM6.18182 34C6.18182 40.46 8.38564 46.4069 12.0793 51.1298C14.6739 47.724 18.0205 44.9639 21.8578 43.0648C25.6951 41.1657 29.9194 40.179 34.2009 40.1818C38.4274 40.1769 42.5991 41.1372 46.398 42.9895C50.197 44.8418 53.5227 47.5373 56.1216 50.8702C58.7997 47.3577 60.6029 43.2579 61.382 38.9102C62.1611 34.5624 61.8937 30.0917 60.6019 25.8678C59.3101 21.6439 57.031 17.7883 53.9533 14.6201C50.8756 11.4519 47.0877 9.06211 42.903 7.64848C38.7183 6.23485 34.2572 5.83802 29.8887 6.49083C25.5202 7.14363 21.3699 8.8273 17.7813 11.4025C14.1927 13.9778 11.2689 17.3705 9.2518 21.3001C7.23473 25.2296 6.18238 29.583 6.18182 34ZM34 61.8182C27.6139 61.8285 21.4204 59.6316 16.4684 55.5993C18.4614 52.7452 21.1146 50.4149 24.202 48.8069C27.2895 47.1988 30.7198 46.3606 34.2009 46.3636C37.6385 46.3606 41.0273 47.1779 44.0856 48.7477C47.1439 50.3174 49.7835 52.5943 51.7851 55.3891C46.7947 59.5526 40.4991 61.8284 34 61.8182Z" fill="#1F3C88"/>
</svg>
