<svg width="60" height="59" viewBox="0 0 60 59" fill="none" xmlns="http://www.w3.org/2000/svg">
<path d="M54.1463 43.9024C55.6988 43.9024 57.1877 43.2857 58.2855 42.1879C59.3833 41.0902 60 39.6013 60 38.0488V5.85366C60 4.30117 59.3833 2.81227 58.2855 1.7145C57.1877 0.616723 55.6988 0 54.1463 0H23.2976C24.3219 1.78537 24.878 3.80488 24.878 5.85366H54.1463V38.0488H27.8049V43.9024M39.5122 14.6341V20.4878H21.9512V58.5366H16.0976V40.9756H10.2439V58.5366H4.39024V35.122H0V20.4878C0 18.9353 0.616723 17.4464 1.7145 16.3486C2.81227 15.2509 4.30117 14.6341 5.85366 14.6341H39.5122ZM19.0244 5.85366C19.0244 7.40615 18.4077 8.89505 17.3099 9.99282C16.2121 11.0906 14.7232 11.7073 13.1707 11.7073C11.6182 11.7073 10.1293 11.0906 9.03157 9.99282C7.9338 8.89505 7.31707 7.40615 7.31707 5.85366C7.31707 4.30117 7.9338 2.81227 9.03157 1.7145C10.1293 0.616723 11.6182 0 13.1707 0C14.7232 0 16.2121 0.616723 17.3099 1.7145C18.4077 2.81227 19.0244 4.30117 19.0244 5.85366Z" fill="#1F3C88"/>
</svg>
